# xmcd
#
# Track frame offsets: 
#        150
#        15172
#        26345
#        37662
#        49382
#        61740
#        72785
#        85917
#        99650
#        113220
#        127862
#        142577
#        158042
#        170625
#        184522
#        197307
#        209087
#        223257
#        235500
#        248017
#        259947
#
# Disc length: 3630 seconds
#
# Revision: 5
# Processed by: cddbd v1.5.2PL0 Copyright (c) Steve Scherf et al.
# Submitted via: ExactAudioCopyFreeDBPlugin 1.0
#
DISCID=0d0e2c15
DTITLE=The Four Tops - Four Tops:  Fourever [box set]
DYEAR=2001
DGENRE=Soul
TTITLE0=Could it Be You
TTITLE1=Ain't That Love
TTITLE2=Pennies from Heaven
TTITLE3=Until I Met You (alternate mix)
TTITLE4=Baby I Need Your Loving
TTITLE5=Where Did You Go
TTITLE6=Without the One You Love (Life's Not Worth While)
TTITLE7=Left with a Broken Heart
TTITLE8=Ask the Lonely (alternate mix)
TTITLE9=Just a Little Love (Before My Life Is Gone)
TTITLE10=My Heart is Calling You
TTITLE11=I Can't Help Myself (Sugar Pie, Honey Bunch) (alternate mix)
TTITLE12=It's the Same Old Song (alternate mix)
TTITLE13=Is There Anything I Can Do
TTITLE14=Something About You
TTITLE15=No Good Without You
TTITLE16=Just as Long as You Need Me
TTITLE17=Shake Me, Wake Me (When It's Over)
TTITLE18=Loving You is Sweeter Than Ever
TTITLE19=Brenda (ft Lawrence Payton, vocal) (alternate version)
TTITLE20=For Once in My Life
EXTD=
EXTT0=
EXTT1=
EXTT2=
EXTT3=
EXTT4=
EXTT5=
EXTT6=
EXTT7=
EXTT8=
EXTT9=
EXTT10=
EXTT11=
EXTT12=
EXTT13=
EXTT14=
EXTT15=
EXTT16=
EXTT17=
EXTT18=
EXTT19=
EXTT20=
PLAYORDER=
